<svg xmlns="http://www.w3.org/2000/svg" width="42.488" height="29.471" viewBox="0 0 42.488 29.471"><g transform="translate(-198.817 -152.893)"><g transform="translate(-5 4)"><path d="M-16.1,277.363l4.621-.383,1.248-5.3L-7.8,268.55l7.014-.537,2.538,2.2,2.261,4.707.255,2.063H8.949v-3.275l-.366-3.125L7,267.622,4.015,264.95l-1.461-1.061.4-2.427L4.27,259.9,7,259.278H9.885l2.729,2.184,1.368,4.665H17.3l-.369-4.665a39.6,39.6,0,0,1-2.138-3.587c.078-.156-1.346-.936-1.346-.936l-.9-1.773.163-.575.295-.83v-2.514l-2.575-3.081-4.209-.273-2.5,1.794-1.17,2.262v2.184l.4,1.4v1.04l-.867.364-.333-2.071L.231,253.3l-1.984-1.351H-7.291c.234,0-2.077,2.184-2.077,2.184l-1.336,2.444-.78.364h-.468l.468-.7.408-1.1v-4.2l-1.11-1.883-1.058-.9h-5.8l-2.028,2.169s-.39,4.807,0,5.353a3.231,3.231,0,0,1,.322,1.661l-2.077,1.292-1.988,2.822h0l-.365,4.7h4.43v-3.92l1.706-2.586,5.069-.377,2.5,1.638.78,1.326.468,2.184-3.008,2.763-2.861,4.489Z" transform="translate(229 -99)" fill="#32dce8"/><path d="M-5.915,258.81l-.547,1.51.547,1.941,1.374,1.378h1.363l1.714-.534.586-.844.657-1.941-.657-1.51-1.2-.875H-3.835Z" transform="translate(476.257 91.94) rotate(74)" fill="#f4f6f7"/><path d="M-6.037,258.581l-.426,1.115.426,1.433,1.069,1.018h1.06l1.332-.394.455-.624.511-1.433-.511-1.115-.934-.646H-4.42Z" transform="translate(216.913 -105.126)" fill="#e1edf0"/><path d="M-6.093,258.595l-.37,1.139.37,1.464.928,1.039h.92l1.157-.4.4-.637.443-1.464-.443-1.139-.811-.66H-4.689Z" transform="translate(240.936 -105.126)" fill="#e1edf0"/></g></g></svg>