<svg xmlns="http://www.w3.org/2000/svg" xmlns:xlink="http://www.w3.org/1999/xlink" width="65" height="54.578" viewBox="0 0 65 54.578"><defs><filter id="a" x="10.334" y="3.428" width="32.024" height="51.151" filterUnits="userSpaceOnUse"><feOffset dy="3" input="SourceAlpha"/><feGaussianBlur stdDeviation="3" result="b"/><feFlood flood-color="#2693e8" flood-opacity="0.161"/><feComposite operator="in" in2="b"/><feComposite in="SourceGraphic"/></filter></defs><g transform="translate(-125 -142)"><rect width="65" height="50" transform="translate(125 143)" fill="none"/><path d="M-85.633,242c.026.5-.681.6-.951,1.448a9.974,9.974,0,0,0-.669,3.417c.531,3.424,2.559,3.168,2.559,3.168h28.231l2.023-1.309,1.02-2.819-.48-2.22-.942-1.018L-56.462,242Z" transform="translate(229 -100)" fill="#32dce8"/><g transform="matrix(1, 0, 0, 1, 125, 142)" filter="url(#a)"><path d="M-84.166,250.928h3.031a22.737,22.737,0,0,0,.15,3.161,7.083,7.083,0,0,0,.631,2.135l2.743,4.271,2,3.108,4.473,2.453v1.986l-2.812,1.713-3.331,3-2.409,3.631-.7,2.43-.737,4.259h-3.031V280.02l.423-1.932.41-1.2,1.925-4.376,1.714-2.432,1.412-1.124,1.584-.71v-.205l.271-1.986-1.145-.539-1.7-1.614-2.462-3.226-1.775-3.659-.655-2.212Z" transform="translate(104 -241)" fill="#32dce8" stroke="#26c6e6" stroke-linejoin="bevel" stroke-width="1" stroke-dasharray="85"/></g><path d="M-70.673,250.928h-3.14a21.953,21.953,0,0,1-.155,3.161,6.91,6.91,0,0,1-.654,2.135l-2.842,4.271-2.068,3.108-4.634,2.453v1.986l2.914,1.713,3.451,3,2.5,3.631.729,2.43.764,4.259h3.14V280.02l-.438-1.932-.424-1.2-1.994-4.376-1.776-2.432-1.463-1.124-1.641-.71v-.205l-.281-1.986,1.186-.539,1.763-1.614,2.551-3.226,1.839-3.659.679-2.212Z" transform="translate(243.024 -99)" fill="#32dce8" stroke="#26c6e6" stroke-linecap="round" stroke-linejoin="round" stroke-width="1" stroke-dasharray="89"/><path d="M-80.057,283.011h19.113l-1.288-4.861-1.95-3.665-3.875-3.894h-2.7l2.4.3s-2.99-2.615-5.93.832-2.129,2.762-2.129,2.762l-1.419,1.8-1.185,3.65Z" transform="translate(229 -99)" fill="#26c6e6"/><path d="M-85.633,242c.026.5-.681.6-.951,1.448a9.974,9.974,0,0,0-.669,3.417c.531,3.424,2.559,3.168,2.559,3.168h28.231l2.023-1.309,1.02-2.819-.48-2.22-.942-1.018L-56.462,242Z" transform="translate(229 -57)" fill="#26c6e6"/></g></svg>