<svg xmlns="http://www.w3.org/2000/svg" width="33.853" height="40.481" viewBox="0 0 33.853 40.481"><g transform="translate(-132.208 -291.353)"><path d="M-94.087,403.98a4.67,4.67,0,0,0-.989,1.867,3.147,3.147,0,0,0,.989,1.648,13.253,13.253,0,0,0,1.578,1.211s2.459-.165,2.432-.14,1.137-1.492,1.137-1.492a3.532,3.532,0,0,0,.538-1.227,1.261,1.261,0,0,0-.538-1.424,5.346,5.346,0,0,0-1.412-1.075A5.455,5.455,0,0,0-92.509,403Z" transform="translate(229 -99)" fill="#32dce8"/><path d="M-96.792,410.5H-87.1l.51,10.239s-2.447-.714-2.243,0,.918,10.2.612,10.095-8.565,0-8.565,0l1.428-9.381-1.428-.714Z" transform="translate(229 -99)" fill="#32dce8"/><path d="M-93.936,400.651h2.549v-3.875a51.289,51.289,0,0,1,5.608,0c.408.2,0,4.079,0,3.875s4.283.2,4.385,0,0-3.875,0-3.875h5.71v3.875h3.773a24.579,24.579,0,0,1,0-3.875s5.71.1,5.812,0,0,30.284,0,30.284H-86.493v3.365s21.107.306,21.209,0a10.409,10.409,0,0,1,2.345-1.224V394.839l-3.161-1.733h-5.812v-2.753h-3.773v2.753h-5.71v-2.753h-4.385v2.753H-92l-1.937,1.733Z" transform="translate(229 -99)" fill="#32dce8"/><path d="M-84.046,403.914v2.753H-69.77v-2.753Z" transform="translate(230 -99)" fill="#26c6e6"/><path d="M-81.7,415.334v2.549h11.42v-2.549Z" transform="translate(230 -105)" fill="#32dce8"/><path d="M-81.7,415.334v2.285h11.42v-2.285Z" transform="matrix(1, -0.017, 0.017, 1, 222.893, -101.09)" fill="#26c6e6"/></g></svg>